<svg xmlns="http://www.w3.org/2000/svg" width="14" height="14" fill="none" viewBox="0 0 14 14">
  <path fill="#ACACAC" d="M12.833 2.042h-.583a.584.584 0 00-1.167 0H9.917a.584.584 0 00-1.167 0H7.583a.584.584 0 00-1.166 0H5.25a.584.584 0 00-1.167 0H2.917a.584.584 0 00-1.167 0h-.583C.523 2.042 0 2.565 0 3.208v1.167h14V3.208c0-.643-.523-1.166-1.167-1.166zM0 11.375c0 .643.523 1.167 1.167 1.167h11.666c.644 0 1.167-.524 1.167-1.167V5.542H0v5.833zm10.5-5.25a.584.584 0 110 1.167.584.584 0 010-1.167zm0 1.75a.584.584 0 110 1.167.584.584 0 010-1.167zm0 1.75a.583.583 0 110 1.167.583.583 0 010-1.167zm-2.333-3.5a.584.584 0 110 1.167.584.584 0 010-1.167zm0 1.75a.584.584 0 110 1.167.584.584 0 010-1.167zm0 1.75a.584.584 0 110 1.167.584.584 0 010-1.167zm-2.334-3.5a.584.584 0 110 1.167.584.584 0 010-1.167zm0 1.75a.584.584 0 110 1.167.584.584 0 010-1.167zm0 1.75a.584.584 0 110 1.167.584.584 0 010-1.167zM3.5 6.125a.584.584 0 110 1.167.584.584 0 010-1.167zm0 1.75a.584.584 0 110 1.167.584.584 0 010-1.167zm0 1.75a.584.584 0 110 1.167.584.584 0 010-1.167z"/>
</svg>
