<svg xmlns="http://www.w3.org/2000/svg" width="33" height="34" fill="none" viewBox="0 0 33 34">
  <g clip-path="url(#clip0)">
    <path fill="#E71D36" d="M22.617 8.09v-.002l-6.024 6.232-6.014-6.22a1.252 1.252 0 00-1.804-.013l-.771.797c-.495.512-.484 1.356.011 1.868l6.014 6.22-6.025 6.23a1.343 1.343 0 00-.002 1.855l.775.802a1.236 1.236 0 001.79-.005l6.026-6.231 6.035 6.242c.495.512 1.29.501 1.784-.01l.77-.798a1.33 1.33 0 00.01-1.844l-6.035-6.242 6.023-6.23c.495-.512.5-1.341.006-1.853l-.776-.802a1.24 1.24 0 00-1.793.003z"/>
  </g>
  <defs>
    <clipPath id="clip0">
      <path fill="#fff" d="M0 0h23.606v23.606H0z" transform="scale(.98301 1.0167) rotate(-45 20.242 8.12)"/>
    </clipPath>
  </defs>
</svg>
