<svg xmlns="http://www.w3.org/2000/svg" width="16" height="16" fill="none" viewBox="0 0 16 16">
  <g clip-path="url(#clip0)">
    <path fill="#fff" d="M15.719 6.29l-2.002-1.632v-2.61a.534.534 0 00-.533-.533h-1.26a.534.534 0 00-.532.533v.714L8.716.582a1.136 1.136 0 00-.718-.245 1.13 1.13 0 00-.714.244L.28 6.289c-.318.26-.3.485-.26.597.04.111.168.298.576.298h.96v7.507c0 .536.434.971.968.971h3.028c.53 0 .945-.426.945-.971v-3.079c0-.264.243-.504.509-.504h2.035c.253 0 .46.226.46.504v3.079c0 .526.455.971.993.971h2.98a.971.971 0 00.969-.971V7.184h.959c.408 0 .536-.187.575-.298.04-.112.06-.338-.259-.597z"/>
  </g>
  <defs>
    <clipPath id="clip0">
      <path fill="#fff" d="M0 0h16v16H0z"/>
    </clipPath>
  </defs>
</svg>
