<svg xmlns="http://www.w3.org/2000/svg" width="86" height="17" fill="none" viewBox="0 0 86 17">
  <path fill="#477998" d="M23.264 13H20.8l.928-10.784h2.704l1.504 3.904c.256.65.475 1.248.656 1.792.181.544.299.928.352 1.152l.08.32c.17-.704.544-1.792 1.12-3.264l1.52-3.904h2.704L33.488 13h-2.464l-.4-4.176-.208-3.152c-.277.8-.661 1.85-1.152 3.152l-1.52 4.064h-1.456l-1.504-4.064a48.192 48.192 0 01-.624-1.776 23.13 23.13 0 01-.336-1.088l-.08-.288c0 .757-.048 1.808-.144 3.152L23.264 13zm14.953-1.6c.33 0 .587-.101.768-.304.182-.203.272-.48.272-.832v-.592h-.752c-.394 0-.698.085-.912.256a.803.803 0 00-.32.656c0 .544.315.816.944.816zm1.152.608c-.341.693-1.013 1.04-2.016 1.04-.79 0-1.408-.224-1.856-.672-.437-.448-.656-1.008-.656-1.68 0-.779.283-1.381.848-1.808.576-.437 1.424-.656 2.544-.656h1.024v-.56c0-.683-.453-1.024-1.36-1.024-.874 0-1.685.245-2.432.736V5.288c.64-.363 1.563-.544 2.768-.544 1.152 0 2.01.25 2.576.752.566.49.848 1.259.848 2.304V13H39.37v-.992zm11.674-3.104c0 1.227-.352 2.24-1.056 3.04-.693.79-1.664 1.184-2.912 1.184-1.27 0-2.25-.379-2.944-1.136-.693-.768-1.04-1.75-1.04-2.944 0-1.248.363-2.272 1.088-3.072.726-.81 1.69-1.216 2.896-1.216 1.259 0 2.235.39 2.928 1.168.694.779 1.04 1.77 1.04 2.976zm-5.136-1.648c-.256.437-.384 1.003-.384 1.696 0 .693.128 1.264.384 1.712.267.437.662.656 1.184.656.512 0 .89-.213 1.136-.64.256-.437.384-1.003.384-1.696 0-1.59-.517-2.384-1.552-2.384-.512 0-.896.219-1.152.656zm10.214 2.976c0 1.845-.837 2.768-2.512 2.768-.597 0-1.104-.117-1.52-.352V11.4c.427.277.875.416 1.344.416.928 0 1.392-.49 1.392-1.472V2.216h1.296v8.016zm4.87 1.792c.577 0 1.035-.16 1.377-.48.341-.33.512-.747.512-1.248v-1.04h-1.408c-.683 0-1.195.133-1.536.4-.342.267-.512.603-.512 1.008s.133.736.4.992c.266.245.656.368 1.168.368zm1.905.016c-.416.693-1.174 1.04-2.272 1.04-.758 0-1.37-.224-1.84-.672-.459-.448-.688-1.013-.688-1.696 0-.779.293-1.381.88-1.808.597-.437 1.408-.656 2.432-.656h1.472v-.416c0-.64-.144-1.12-.432-1.44-.288-.33-.774-.496-1.456-.496-.864 0-1.632.23-2.304.688V5.32c.608-.373 1.408-.56 2.4-.56 2.037 0 3.056 1.035 3.056 3.104V13h-1.248v-.96zm4.819 1.84c0 .704-.187 1.253-.56 1.648-.363.395-.87.592-1.52.592-.352 0-.736-.08-1.152-.24v-1.12c.405.17.768.256 1.088.256.597 0 .896-.39.896-1.168v-8.96h1.248v8.992zm-.048-12.128c.16.16.24.357.24.592s-.08.432-.24.592a.835.835 0 01-.592.224.835.835 0 01-.592-.224.835.835 0 01-.224-.592c0-.235.074-.432.224-.592.16-.16.357-.24.592-.24.234 0 .432.08.592.24zm4.84 10.272c.576 0 1.035-.16 1.376-.48.342-.33.512-.747.512-1.248v-1.04h-1.408c-.682 0-1.194.133-1.536.4-.341.267-.512.603-.512 1.008s.134.736.4.992c.267.245.656.368 1.168.368zm1.904.016c-.416.693-1.173 1.04-2.272 1.04-.757 0-1.37-.224-1.84-.672-.458-.448-.688-1.013-.688-1.696 0-.779.294-1.381.88-1.808.598-.437 1.408-.656 2.432-.656h1.472v-.416c0-.64-.144-1.12-.432-1.44-.288-.33-.773-.496-1.456-.496-.864 0-1.632.23-2.304.688V5.32c.608-.373 1.408-.56 2.4-.56 2.038 0 3.056 1.035 3.056 3.104V13h-1.248v-.96zm9.891.96h-1.264V7.752c0-.597-.154-1.05-.464-1.36-.298-.32-.693-.48-1.184-.48-.608 0-1.136.235-1.584.704-.437.47-.656 1.12-.656 1.952V13h-1.248V4.888h1.248v1.408c.48-1.013 1.334-1.52 2.56-1.52.79 0 1.419.24 1.888.72.47.48.704 1.12.704 1.92V13zM12.165 5.227c-.074-.524-.584-.966-1.123-.966V3.113A3.108 3.108 0 007.942 0C6.229 0 4.84 1.39 4.84 3.1V4.26c-.54 0-1.028.442-1.1.965l-1.36 9.965a.704.704 0 00.167.583c.138.158.344.226.576.226h9.725c.232 0 .435-.067.572-.225a.717.717 0 00.156-.59l-1.412-9.958zM5.704 3.1a2.238 2.238 0 114.475.013v1.132H5.704V3.1z"/>
  <path fill="#F81" d="M1.373 5.933a.982.982 0 00-.76 1.102l1.106 6.643 1.099-8.034-1.445.289zM14.627 5.933l-1.52-.304 1.153 8.175 1.128-6.769a.982.982 0 00-.76-1.102z"/>
</svg>
