<svg xmlns="http://www.w3.org/2000/svg" width="36" height="36" fill="none" viewBox="0 0 36 36">
  <g clip-path="url(#clip0)">
    <path fill="#fff" d="M34.03 15.189h.001-13.219V1.995C20.812.909 19.933 0 18.847 0h-1.691c-1.086 0-1.969.908-1.969 1.994v13.194H1.97A1.967 1.967 0 000 17.153v1.7c0 1.086.883 1.96 1.969 1.96h13.219v13.242c0 1.085.882 1.946 1.968 1.946h1.692c1.085 0 1.965-.861 1.965-1.946V20.813h13.216c1.086 0 1.971-.874 1.971-1.96v-1.7a1.968 1.968 0 00-1.97-1.964z"/>
  </g>
  <defs>
    <clipPath id="clip0">
      <path fill="#fff" d="M0 0h36v36H0z"/>
    </clipPath>
  </defs>
</svg>
