<svg xmlns="http://www.w3.org/2000/svg" width="282" height="88" fill="none" viewBox="0 0 282 88">
  <path fill="#fff" d="M72.016 50H63.7l3.132-36.396h9.126l5.076 13.176a122.203 122.203 0 012.214 6.048c.612 1.836 1.008 3.132 1.188 3.888l.27 1.08c.576-2.376 1.836-6.048 3.78-11.016l5.13-13.176h9.126L106.522 50h-8.316l-1.35-14.094-.702-10.638c-.936 2.7-2.232 6.246-3.888 10.638l-5.13 13.716h-4.914l-5.076-13.716c-.828-2.232-1.53-4.23-2.106-5.994-.576-1.764-.954-2.988-1.134-3.672l-.27-.972c0 2.556-.162 6.102-.486 10.638L72.016 50zm50.467-5.4c1.116 0 1.98-.342 2.592-1.026.612-.684.918-1.62.918-2.808v-1.998h-2.538c-1.332 0-2.358.288-3.078.864-.72.576-1.08 1.314-1.08 2.214 0 1.836 1.062 2.754 3.186 2.754zm3.888 2.052c-1.152 2.34-3.42 3.51-6.804 3.51-2.664 0-4.752-.756-6.264-2.268-1.476-1.512-2.214-3.402-2.214-5.67 0-2.628.954-4.662 2.862-6.102 1.944-1.476 4.806-2.214 8.586-2.214h3.456v-1.89c0-2.304-1.53-3.456-4.59-3.456-2.952 0-5.688.828-8.208 2.484v-7.074c2.16-1.224 5.274-1.836 9.342-1.836 3.888 0 6.786.846 8.694 2.538 1.908 1.656 2.862 4.248 2.862 7.776V50h-7.722v-3.348zm39.4-10.476c0 4.14-1.188 7.56-3.564 10.26-2.34 2.664-5.616 3.996-9.828 3.996-4.284 0-7.596-1.278-9.936-3.834-2.34-2.592-3.51-5.904-3.51-9.936 0-4.212 1.224-7.668 3.672-10.368 2.448-2.736 5.706-4.104 9.774-4.104 4.248 0 7.542 1.314 9.882 3.942s3.51 5.976 3.51 10.044zm-17.334-5.562c-.864 1.476-1.296 3.384-1.296 5.724 0 2.34.432 4.266 1.296 5.778.9 1.476 2.232 2.214 3.996 2.214 1.728 0 3.006-.72 3.834-2.16.864-1.476 1.296-3.384 1.296-5.724 0-5.364-1.746-8.046-5.238-8.046-1.728 0-3.024.738-3.888 2.214zm34.473 10.044c0 6.228-2.826 9.342-8.478 9.342-2.016 0-3.726-.396-5.13-1.188V44.6c1.44.936 2.952 1.404 4.536 1.404 3.132 0 4.698-1.656 4.698-4.968V13.604h4.374v27.054zm16.437 6.048c1.944 0 3.492-.54 4.644-1.62 1.152-1.116 1.728-2.52 1.728-4.212v-3.51h-4.752c-2.304 0-4.032.45-5.184 1.35-1.152.9-1.728 2.034-1.728 3.402 0 1.368.45 2.484 1.35 3.348.9.828 2.214 1.242 3.942 1.242zm6.426.054c-1.404 2.34-3.96 3.51-7.668 3.51-2.556 0-4.626-.756-6.21-2.268-1.548-1.512-2.322-3.42-2.322-5.724 0-2.628.99-4.662 2.97-6.102 2.016-1.476 4.752-2.214 8.208-2.214h4.968v-1.404c0-2.16-.486-3.78-1.458-4.86-.972-1.116-2.61-1.674-4.914-1.674-2.916 0-5.508.774-7.776 2.322V24.08c2.052-1.26 4.752-1.89 8.1-1.89 6.876 0 10.314 3.492 10.314 10.476V50h-4.212v-3.24zm16.264 6.21c0 2.376-.63 4.23-1.89 5.562-1.224 1.332-2.934 1.998-5.13 1.998-1.188 0-2.484-.27-3.888-.81v-3.78c1.368.576 2.592.864 3.672.864 2.016 0 3.024-1.314 3.024-3.942v-30.24h4.212V52.97zm-.162-40.932c.54.54.81 1.206.81 1.998s-.27 1.458-.81 1.998c-.54.504-1.206.756-1.998.756s-1.458-.252-1.998-.756c-.504-.54-.756-1.206-.756-1.998s.252-1.458.756-1.998c.54-.54 1.206-.81 1.998-.81s1.458.27 1.998.81zm16.337 34.668c1.944 0 3.492-.54 4.644-1.62 1.152-1.116 1.728-2.52 1.728-4.212v-3.51h-4.752c-2.304 0-4.032.45-5.184 1.35-1.152.9-1.728 2.034-1.728 3.402 0 1.368.45 2.484 1.35 3.348.9.828 2.214 1.242 3.942 1.242zm6.426.054c-1.404 2.34-3.96 3.51-7.668 3.51-2.556 0-4.626-.756-6.21-2.268-1.548-1.512-2.322-3.42-2.322-5.724 0-2.628.99-4.662 2.97-6.102 2.016-1.476 4.752-2.214 8.208-2.214h4.968v-1.404c0-2.16-.486-3.78-1.458-4.86-.972-1.116-2.61-1.674-4.914-1.674-2.916 0-5.508.774-7.776 2.322V24.08c2.052-1.26 4.752-1.89 8.1-1.89 6.876 0 10.314 3.492 10.314 10.476V50h-4.212v-3.24zM278.021 50h-4.266V32.288c0-2.016-.522-3.546-1.566-4.59-1.008-1.08-2.34-1.62-3.996-1.62-2.052 0-3.834.792-5.346 2.376-1.476 1.584-2.214 3.78-2.214 6.588V50h-4.212V22.622h4.212v4.752c1.62-3.42 4.5-5.13 8.64-5.13 2.664 0 4.788.81 6.372 2.43 1.584 1.62 2.376 3.78 2.376 6.48V50zM41.058 17.64c-.25-1.766-1.97-3.258-3.79-3.258v-3.875C37.267 4.713 32.583 0 26.802 0S16.338 4.693 16.338 10.461v3.92c-1.82 0-3.469 1.491-3.71 3.256l-4.59 33.634c-.106.778.097 1.434.563 1.967.465.534 1.158.762 1.943.762h32.82c.784 0 1.47-.227 1.932-.758.461-.532.636-1.219.526-1.995L41.058 17.64zM19.25 10.461c0-4.16 3.38-7.544 7.553-7.544 4.172 0 7.552 3.405 7.552 7.59v3.819H19.25V10.46z"/>
  <path fill="#F81" d="M4.634 20.023c-1.672.335-2.849 2.038-2.568 3.72l3.737 22.42L9.51 19.049l-4.877.976zM49.366 20.023l-5.13-1.026 3.89 27.59 3.808-22.844c.28-1.681-.896-3.385-2.568-3.72z"/>
  <path fill="#fff" d="M76.96 83.456c-.661.448-1.568.672-2.72.672-1.621 0-2.939-.496-3.952-1.488-1.013-1.003-1.52-2.363-1.52-4.08 0-1.621.512-2.939 1.536-3.952 1.035-1.024 2.33-1.536 3.888-1.536 1.12 0 2.032.192 2.736.576v1.328a6.858 6.858 0 00-1.264-.528c-.373-.107-.864-.16-1.472-.16-1.163 0-2.133.395-2.912 1.184-.768.79-1.152 1.819-1.152 3.088 0 1.323.384 2.379 1.152 3.168.768.79 1.787 1.184 3.056 1.184 1.024 0 1.899-.272 2.624-.816v1.36zm4.313-.432c.576 0 1.035-.16 1.376-.48.341-.33.512-.747.512-1.248v-1.04h-1.408c-.683 0-1.195.133-1.536.4-.341.267-.512.603-.512 1.008s.133.736.4.992c.267.245.656.368 1.168.368zm1.904.016c-.416.693-1.173 1.04-2.272 1.04-.757 0-1.37-.224-1.84-.672-.459-.448-.688-1.013-.688-1.696 0-.779.293-1.381.88-1.808.597-.437 1.408-.656 2.432-.656h1.472v-.416c0-.64-.144-1.12-.432-1.44-.288-.33-.773-.496-1.456-.496-.864 0-1.632.23-2.304.688V76.32c.608-.373 1.408-.56 2.4-.56 2.037 0 3.056 1.035 3.056 3.104V84h-1.248v-.96zm7.555.752a2.432 2.432 0 01-1.184.288c-1.6 0-2.4-.816-2.4-2.448v-4.72h-1.296v-1.024h1.296v-2.016h1.264v2.016h2.24v1.024h-2.24v4.752c0 .864.405 1.296 1.216 1.296.416 0 .784-.123 1.104-.368v1.2zm4.322-.768c.576 0 1.035-.16 1.376-.48.342-.33.512-.747.512-1.248v-1.04h-1.408c-.682 0-1.194.133-1.536.4-.341.267-.512.603-.512 1.008s.134.736.4.992c.267.245.656.368 1.168.368zm1.904.016c-.416.693-1.173 1.04-2.272 1.04-.757 0-1.37-.224-1.84-.672-.458-.448-.688-1.013-.688-1.696 0-.779.294-1.381.88-1.808.598-.437 1.408-.656 2.432-.656h1.472v-.416c0-.64-.144-1.12-.432-1.44-.288-.33-.773-.496-1.456-.496-.864 0-1.632.23-2.304.688V76.32c.608-.373 1.408-.56 2.4-.56 2.038 0 3.056 1.035 3.056 3.104V84h-1.248v-.96zm7.555.752a2.43 2.43 0 01-1.184.288c-1.6 0-2.4-.816-2.4-2.448v-4.72h-1.296v-1.024h1.296v-2.016h1.264v2.016h2.24v1.024h-2.24v4.752c0 .864.406 1.296 1.216 1.296.416 0 .784-.123 1.104-.368v1.2zm4.323-.768c.576 0 1.034-.16 1.376-.48.341-.33.512-.747.512-1.248v-1.04h-1.408c-.683 0-1.195.133-1.536.4-.342.267-.512.603-.512 1.008s.133.736.4.992c.266.245.656.368 1.168.368zm1.904.016c-.416.693-1.174 1.04-2.272 1.04-.758 0-1.371-.224-1.84-.672-.459-.448-.688-1.013-.688-1.696 0-.779.293-1.381.88-1.808.597-.437 1.408-.656 2.432-.656h1.472v-.416c0-.64-.144-1.12-.432-1.44-.288-.33-.774-.496-1.456-.496-.864 0-1.632.23-2.304.688V76.32c.608-.373 1.408-.56 2.4-.56 2.037 0 3.056 1.035 3.056 3.104V84h-1.248v-.96zm9.891.96h-1.264v-5.248c0-.597-.155-1.05-.464-1.36-.299-.32-.694-.48-1.184-.48-.608 0-1.136.235-1.584.704-.438.47-.656 1.12-.656 1.952V84h-1.248v-8.112h1.248v1.408c.48-1.013 1.333-1.52 2.56-1.52.789 0 1.418.24 1.888.72.469.48.704 1.12.704 1.92V84zm7.162 0h-1.264V72.688h1.264v4.416c.586-.896 1.408-1.344 2.464-1.344 1.024 0 1.861.395 2.512 1.184.65.779.976 1.803.976 3.072 0 1.141-.31 2.112-.928 2.912-.608.8-1.451 1.2-2.528 1.2-1.088 0-1.92-.443-2.496-1.328V84zm0-4.112c0 1.077.229 1.861.688 2.352.469.49 1.034.736 1.696.736.65 0 1.189-.272 1.616-.816.426-.544.64-1.253.64-2.128 0-1.003-.224-1.77-.672-2.304-.438-.544-.992-.816-1.664-.816-.576 0-1.104.24-1.584.72s-.72 1.232-.72 2.256zm13.733 3.696c-.63.33-1.398.496-2.304.496-1.227 0-2.219-.373-2.976-1.12-.747-.757-1.12-1.755-1.12-2.992 0-1.29.336-2.31 1.008-3.056.672-.747 1.536-1.12 2.592-1.12 1.013 0 1.818.325 2.416.976.597.65.896 1.573.896 2.768 0 .341-.027.656-.08.944h-5.536c.096.8.4 1.413.912 1.84.512.427 1.184.64 2.016.64.906 0 1.632-.187 2.176-.56v1.184zm-2.8-6.688c-.608 0-1.126.219-1.552.656-.427.437-.678 1.061-.752 1.872h4.352v-.32c0-.672-.182-1.205-.544-1.6-.363-.405-.864-.608-1.504-.608zM145.293 84h-1.264V72.688h1.264V84zm4.886-.976c.576 0 1.035-.16 1.376-.48.342-.33.512-.747.512-1.248v-1.04h-1.408c-.682 0-1.194.133-1.536.4-.341.267-.512.603-.512 1.008s.134.736.4.992c.267.245.656.368 1.168.368zm1.904.016c-.416.693-1.173 1.04-2.272 1.04-.757 0-1.37-.224-1.84-.672-.458-.448-.688-1.013-.688-1.696 0-.779.294-1.381.88-1.808.598-.437 1.408-.656 2.432-.656h1.472v-.416c0-.64-.144-1.12-.432-1.44-.288-.33-.773-.496-1.456-.496-.864 0-1.632.23-2.304.688V76.32c.608-.373 1.408-.56 2.4-.56 2.038 0 3.056 1.035 3.056 3.104V84h-1.248v-.96zm9.891.96h-1.264v-5.248c0-.597-.154-1.05-.464-1.36-.298-.32-.693-.48-1.184-.48-.608 0-1.136.235-1.584.704-.437.47-.656 1.12-.656 1.952V84h-1.248v-8.112h1.248v1.408c.48-1.013 1.334-1.52 2.56-1.52.79 0 1.419.24 1.888.72.47.48.704 1.12.704 1.92V84zm3.569.88c0 .704-.187 1.253-.56 1.648-.363.395-.869.592-1.52.592-.352 0-.736-.08-1.152-.24v-1.12c.405.17.768.256 1.088.256.597 0 .896-.39.896-1.168v-8.96h1.248v8.992zm-.048-12.128c.16.16.24.357.24.592s-.08.432-.24.592a.834.834 0 01-.592.224.834.834 0 01-.592-.224.836.836 0 01-.224-.592c0-.235.075-.432.224-.592.16-.16.357-.24.592-.24s.432.08.592.24zm4.841 10.272c.576 0 1.034-.16 1.376-.48.341-.33.512-.747.512-1.248v-1.04h-1.408c-.683 0-1.195.133-1.536.4-.342.267-.512.603-.512 1.008s.133.736.4.992c.266.245.656.368 1.168.368zm1.904.016c-.416.693-1.174 1.04-2.272 1.04-.758 0-1.371-.224-1.84-.672-.459-.448-.688-1.013-.688-1.696 0-.779.293-1.381.88-1.808.597-.437 1.408-.656 2.432-.656h1.472v-.416c0-.64-.144-1.12-.432-1.44-.288-.33-.774-.496-1.456-.496-.864 0-1.632.23-2.304.688V76.32c.608-.373 1.408-.56 2.4-.56 2.037 0 3.056 1.035 3.056 3.104V84h-1.248v-.96zm5.971-.016c.576 0 1.034-.16 1.376-.48.341-.33.512-.747.512-1.248v-1.04h-1.408c-.683 0-1.195.133-1.536.4-.342.267-.512.603-.512 1.008s.133.736.4.992c.266.245.656.368 1.168.368zm1.904.016c-.416.693-1.174 1.04-2.272 1.04-.758 0-1.371-.224-1.84-.672-.459-.448-.688-1.013-.688-1.696 0-.779.293-1.381.88-1.808.597-.437 1.408-.656 2.432-.656h1.472v-.416c0-.64-.144-1.12-.432-1.44-.288-.33-.774-.496-1.456-.496-.864 0-1.632.23-2.304.688V76.32c.608-.373 1.408-.56 2.4-.56 2.037 0 3.056 1.035 3.056 3.104V84h-1.248v-.96zm9.891.96h-1.264v-5.248c0-.597-.155-1.05-.464-1.36-.299-.32-.694-.48-1.184-.48-.608 0-1.136.235-1.584.704-.438.47-.656 1.12-.656 1.952V84h-1.248v-8.112h1.248v1.408c.48-1.013 1.333-1.52 2.56-1.52.789 0 1.418.24 1.888.72.469.48.704 1.12.704 1.92V84zm13.088 0h-1.264v-5.248c0-1.227-.517-1.84-1.552-1.84-.512 0-.971.235-1.376.704-.405.459-.608 1.11-.608 1.952V84h-1.264v-5.248c0-1.227-.517-1.84-1.552-1.84-.512 0-.971.235-1.376.704-.405.459-.608 1.11-.608 1.952V84h-1.248v-8.112h1.248V77.2c.448-.95 1.211-1.424 2.288-1.424 1.248 0 2.037.528 2.368 1.584.235-.512.56-.901.976-1.168a2.558 2.558 0 011.424-.416c.843 0 1.477.24 1.904.72.427.48.64 1.125.64 1.936V84zm8.55 0h-1.264v-1.408c-.427 1.003-1.275 1.504-2.544 1.504-.8 0-1.435-.235-1.904-.704-.459-.48-.688-1.12-.688-1.92v-5.584h1.264v5.264c0 .587.149 1.035.448 1.344.299.31.704.464 1.216.464.672 0 1.205-.235 1.6-.704.405-.47.608-1.104.608-1.904v-4.464h1.264V84z"/>
</svg>
